<?xml version="1.0" encoding="UTF-8" standalone="no"?><svg xmlns="http://www.w3.org/2000/svg" xmlns:xlink="http://www.w3.org/1999/xlink" fill="#ffffff" height="96.9" preserveAspectRatio="xMidYMid meet" version="1" viewBox="0.0 0.0 500.0 96.9" width="500" zoomAndPan="magnify"><defs><clipPath id="a"><path d="M 351 43 L 355 43 L 355 96.949219 L 351 96.949219 Z M 351 43"/></clipPath></defs><g><g id="change1_1"><path d="M 500 17.140625 L 0.875 17.171875 L 0.875 17.175781 L 34.382812 17.179688 C 63.417969 17.183594 92.34375 17.183594 121.339844 17.179688 L 500 17.144531 L 500 17.140625"/></g><g id="change1_2"><path d="M 77.875 18.058594 C 63.390625 18.058594 48.902344 18.054688 34.382812 18.054688 L 0 18.050781 L 0 16.300781 L 0.875 16.296875 L 500 16.265625 L 500 18.019531 L 121.339844 18.054688 C 106.84375 18.054688 92.363281 18.058594 77.875 18.058594"/></g><g id="change1_3"><path d="M 500 30.753906 L 0.875 30.78125 L 0.875 30.789062 L 34.382812 30.792969 C 63.417969 30.792969 92.34375 30.792969 121.339844 30.792969 L 500 30.753906"/></g><g id="change1_4"><path d="M 77.875 31.667969 C 63.390625 31.667969 48.902344 31.667969 34.382812 31.667969 L 0 31.664062 L 0 29.914062 L 0.875 29.90625 L 500 29.878906 L 500 31.628906 L 121.339844 31.667969 C 106.84375 31.667969 92.363281 31.667969 77.875 31.667969"/></g><g id="change1_5"><path d="M 500 44.367188 L 0.875 44.398438 L 0.875 44.402344 L 34.382812 44.40625 C 63.417969 44.40625 92.34375 44.40625 121.339844 44.40625 L 500 44.367188"/></g><g id="change1_6"><path d="M 77.875 45.28125 C 63.390625 45.28125 48.902344 45.28125 34.382812 45.28125 L 0 45.277344 L 0 43.527344 L 0.875 43.523438 L 500 43.492188 L 500 45.242188 L 121.339844 45.28125 C 106.84375 45.28125 92.363281 45.28125 77.875 45.28125"/></g><g id="change1_7"><path d="M 500 57.980469 L 0.875 58.007812 L 0.875 58.015625 L 34.382812 58.019531 C 63.417969 58.019531 92.34375 58.019531 121.339844 58.019531 L 500 57.980469"/></g><g id="change1_8"><path d="M 77.875 58.894531 C 63.390625 58.894531 48.902344 58.894531 34.382812 58.894531 L 0 58.890625 L 0 57.140625 L 0.875 57.132812 L 500 57.105469 L 500 58.855469 L 121.339844 58.894531 C 106.84375 58.894531 92.363281 58.894531 77.875 58.894531"/></g><g id="change1_9"><path d="M 500 71.59375 L 0.875 71.625 L 0.875 71.628906 L 34.382812 71.632812 C 63.417969 71.632812 92.34375 71.632812 121.339844 71.632812 L 500 71.59375"/></g><g id="change1_10"><path d="M 77.875 72.507812 C 63.390625 72.507812 48.902344 72.507812 34.382812 72.507812 L 0 72.503906 L 0 70.753906 L 0.875 70.75 L 500 70.71875 L 500 72.46875 L 121.339844 72.507812 C 106.84375 72.507812 92.363281 72.507812 77.875 72.507812"/></g><g id="change1_11"><path d="M 105.589844 78.328125 C 105.589844 82.171875 100.761719 85.289062 94.8125 85.289062 C 88.859375 85.289062 84.035156 82.171875 84.035156 78.328125 C 84.035156 74.480469 88.859375 71.363281 94.8125 71.363281 C 100.761719 71.363281 105.589844 74.480469 105.589844 78.328125"/></g><g id="change1_12"><path d="M 94.8125 71.4375 C 88.910156 71.4375 84.105469 74.527344 84.105469 78.328125 C 84.105469 82.125 88.910156 85.214844 94.8125 85.214844 C 100.714844 85.214844 105.515625 82.125 105.515625 78.328125 C 105.515625 74.527344 100.714844 71.4375 94.8125 71.4375 Z M 94.8125 85.363281 C 88.828125 85.363281 83.960938 82.207031 83.960938 78.328125 C 83.960938 74.449219 88.828125 71.292969 94.8125 71.292969 C 100.792969 71.292969 105.660156 74.449219 105.660156 78.328125 C 105.660156 82.207031 100.792969 85.363281 94.8125 85.363281"/></g><g id="change1_13"><path d="M 159.003906 71.484375 C 159.003906 75.328125 154.179688 78.445312 148.226562 78.445312 C 142.273438 78.445312 137.449219 75.328125 137.449219 71.484375 C 137.449219 67.640625 142.273438 64.523438 148.226562 64.523438 C 154.179688 64.523438 159.003906 67.640625 159.003906 71.484375"/></g><g id="change1_14"><path d="M 148.226562 64.59375 C 142.324219 64.59375 137.523438 67.683594 137.523438 71.484375 C 137.523438 75.28125 142.324219 78.371094 148.226562 78.371094 C 154.128906 78.371094 158.929688 75.28125 158.929688 71.484375 C 158.929688 67.683594 154.128906 64.59375 148.226562 64.59375 Z M 148.226562 78.519531 C 142.242188 78.519531 137.378906 75.363281 137.378906 71.484375 C 137.378906 67.605469 142.242188 64.449219 148.226562 64.449219 C 154.210938 64.449219 159.078125 67.605469 159.078125 71.484375 C 159.078125 75.363281 154.210938 78.519531 148.226562 78.519531"/></g><g id="change1_15"><path d="M 212.421875 64.640625 C 212.421875 68.484375 207.59375 71.601562 201.644531 71.601562 C 195.691406 71.601562 190.867188 68.484375 190.867188 64.640625 C 190.867188 60.796875 195.691406 57.679688 201.644531 57.679688 C 207.59375 57.679688 212.421875 60.796875 212.421875 64.640625"/></g><g id="change1_16"><path d="M 201.644531 57.753906 C 195.742188 57.753906 190.941406 60.84375 190.941406 64.640625 C 190.941406 68.441406 195.742188 71.53125 201.644531 71.53125 C 207.546875 71.53125 212.347656 68.441406 212.347656 64.640625 C 212.347656 60.84375 207.546875 57.753906 201.644531 57.753906 Z M 201.644531 71.675781 C 195.660156 71.675781 190.792969 68.519531 190.792969 64.640625 C 190.792969 60.761719 195.660156 57.605469 201.644531 57.605469 C 207.625 57.605469 212.492188 60.761719 212.492188 64.640625 C 212.492188 68.519531 207.625 71.675781 201.644531 71.675781"/></g><g id="change1_17"><path d="M 265.835938 57.796875 C 265.835938 61.644531 261.011719 64.761719 255.058594 64.761719 C 249.109375 64.761719 244.28125 61.644531 244.28125 57.796875 C 244.28125 53.953125 249.109375 50.835938 255.058594 50.835938 C 261.011719 50.835938 265.835938 53.953125 265.835938 57.796875"/></g><g id="change1_18"><path d="M 255.058594 50.910156 C 249.15625 50.910156 244.355469 54 244.355469 57.796875 C 244.355469 61.597656 249.15625 64.6875 255.058594 64.6875 C 260.960938 64.6875 265.765625 61.597656 265.765625 57.796875 C 265.765625 54 260.960938 50.910156 255.058594 50.910156 Z M 255.058594 64.832031 C 249.078125 64.832031 244.210938 61.675781 244.210938 57.796875 C 244.210938 53.917969 249.078125 50.761719 255.058594 50.761719 C 261.042969 50.761719 265.910156 53.917969 265.910156 57.796875 C 265.910156 61.675781 261.042969 64.832031 255.058594 64.832031"/></g><g id="change1_19"><path d="M 319.253906 50.957031 C 319.253906 54.800781 314.429688 57.917969 308.476562 57.917969 C 302.523438 57.917969 297.699219 54.800781 297.699219 50.957031 C 297.699219 47.109375 302.523438 43.992188 308.476562 43.992188 C 314.429688 43.992188 319.253906 47.109375 319.253906 50.957031"/></g><g id="change1_20"><path d="M 308.476562 44.066406 C 302.574219 44.066406 297.773438 47.15625 297.773438 50.957031 C 297.773438 54.753906 302.574219 57.84375 308.476562 57.84375 C 314.378906 57.84375 319.179688 54.753906 319.179688 50.957031 C 319.179688 47.15625 314.378906 44.066406 308.476562 44.066406 Z M 308.476562 57.992188 C 302.492188 57.992188 297.625 54.835938 297.625 50.957031 C 297.625 47.078125 302.492188 43.921875 308.476562 43.921875 C 314.460938 43.921875 319.324219 47.078125 319.324219 50.957031 C 319.324219 54.835938 314.460938 57.992188 308.476562 57.992188"/></g><g id="change1_21"><path d="M 372.667969 44.113281 C 372.667969 47.957031 367.84375 51.074219 361.890625 51.074219 C 355.941406 51.074219 351.113281 47.957031 351.113281 44.113281 C 351.113281 40.269531 355.941406 37.152344 361.890625 37.152344 C 367.84375 37.152344 372.667969 40.269531 372.667969 44.113281"/></g><g id="change1_22"><path d="M 361.894531 37.222656 C 355.988281 37.222656 351.1875 40.3125 351.1875 44.113281 C 351.1875 47.910156 355.988281 51.003906 361.894531 51.003906 C 367.796875 51.003906 372.597656 47.910156 372.597656 44.113281 C 372.597656 40.3125 367.796875 37.222656 361.894531 37.222656 Z M 361.894531 51.148438 C 355.910156 51.148438 351.042969 47.992188 351.042969 44.113281 C 351.042969 40.234375 355.910156 37.078125 361.894531 37.078125 C 367.875 37.078125 372.742188 40.234375 372.742188 44.113281 C 372.742188 47.992188 367.875 51.148438 361.894531 51.148438"/></g><g id="change1_23"><path d="M 426.085938 37.269531 C 426.085938 41.113281 421.261719 44.230469 415.308594 44.230469 C 409.355469 44.230469 404.53125 41.113281 404.53125 37.269531 C 404.53125 33.425781 409.355469 30.308594 415.308594 30.308594 C 421.261719 30.308594 426.085938 33.425781 426.085938 37.269531"/></g><g id="change1_24"><path d="M 415.308594 30.378906 C 409.40625 30.378906 404.605469 33.46875 404.605469 37.269531 C 404.605469 41.070312 409.40625 44.160156 415.308594 44.160156 C 421.210938 44.160156 426.011719 41.070312 426.011719 37.269531 C 426.011719 33.46875 421.210938 30.378906 415.308594 30.378906 Z M 415.308594 44.304688 C 409.324219 44.304688 404.460938 41.148438 404.460938 37.269531 C 404.460938 33.390625 409.324219 30.234375 415.308594 30.234375 C 421.289062 30.234375 426.160156 33.390625 426.160156 37.269531 C 426.160156 41.148438 421.289062 44.304688 415.308594 44.304688"/></g><g id="change1_25"><path d="M 479.503906 30.425781 C 479.503906 34.273438 474.675781 37.390625 468.726562 37.390625 C 462.773438 37.390625 457.949219 34.273438 457.949219 30.425781 C 457.949219 26.582031 462.773438 23.464844 468.726562 23.464844 C 474.675781 23.464844 479.503906 26.582031 479.503906 30.425781"/></g><g id="change1_26"><path d="M 468.726562 23.539062 C 462.824219 23.539062 458.019531 26.628906 458.019531 30.425781 C 458.019531 34.226562 462.824219 37.316406 468.726562 37.316406 C 474.628906 37.316406 479.429688 34.226562 479.429688 30.425781 C 479.429688 26.628906 474.628906 23.539062 468.726562 23.539062 Z M 468.726562 37.460938 C 462.742188 37.460938 457.875 34.304688 457.875 30.425781 C 457.875 26.546875 462.742188 23.390625 468.726562 23.390625 C 474.707031 23.390625 479.574219 26.546875 479.574219 30.425781 C 479.574219 34.304688 474.707031 37.460938 468.726562 37.460938"/></g><g id="change1_27"><path d="M 157.601562 72.304688 C 156.796875 72.304688 156.140625 71.652344 156.140625 70.84375 L 156.140625 20.734375 C 156.140625 19.929688 156.796875 19.277344 157.601562 19.277344 C 158.40625 19.277344 159.0625 19.929688 159.0625 20.734375 L 159.0625 70.84375 C 159.0625 71.652344 158.40625 72.304688 157.601562 72.304688"/></g><g id="change1_28"><path d="M 211.019531 66.550781 C 210.214844 66.550781 209.5625 65.898438 209.5625 65.09375 L 209.5625 14.984375 C 209.5625 14.175781 210.214844 13.523438 211.019531 13.523438 C 211.828125 13.523438 212.480469 14.175781 212.480469 14.984375 L 212.480469 65.09375 C 212.480469 65.898438 211.828125 66.550781 211.019531 66.550781"/></g><g id="change1_29"><path d="M 264.503906 59.253906 C 263.699219 59.253906 263.046875 58.601562 263.046875 57.796875 L 263.046875 7.6875 C 263.046875 6.882812 263.699219 6.226562 264.503906 6.226562 C 265.3125 6.226562 265.964844 6.882812 265.964844 7.6875 L 265.964844 57.796875 C 265.964844 58.601562 265.3125 59.253906 264.503906 59.253906"/></g><g id="change1_30"><path d="M 317.847656 53.027344 C 317.039062 53.027344 316.386719 52.375 316.386719 51.566406 L 316.386719 1.460938 C 316.386719 0.652344 317.039062 0 317.847656 0 C 318.652344 0 319.304688 0.652344 319.304688 1.460938 L 319.304688 51.566406 C 319.304688 52.375 318.652344 53.027344 317.847656 53.027344"/></g><g clip-path="url(#a)" id="change1_37"><path d="M 352.675781 96.949219 C 351.867188 96.949219 351.214844 96.296875 351.214844 95.492188 L 351.214844 45.382812 C 351.214844 44.574219 351.867188 43.921875 352.675781 43.921875 C 353.480469 43.921875 354.132812 44.574219 354.132812 45.382812 L 354.132812 95.492188 C 354.132812 96.296875 353.480469 96.949219 352.675781 96.949219"/></g><g id="change1_31"><path d="M 406.015625 89.847656 C 405.210938 89.847656 404.554688 89.191406 404.554688 88.386719 L 404.554688 38.277344 C 404.554688 37.472656 405.210938 36.820312 406.015625 36.820312 C 406.820312 36.820312 407.476562 37.472656 407.476562 38.277344 L 407.476562 88.386719 C 407.476562 89.191406 406.820312 89.847656 406.015625 89.847656"/></g><g id="change1_32"><path d="M 459.375 81.402344 C 458.566406 81.402344 457.914062 80.75 457.914062 79.945312 L 457.914062 29.835938 C 457.914062 29.03125 458.566406 28.375 459.375 28.375 C 460.179688 28.375 460.832031 29.03125 460.832031 29.835938 L 460.832031 79.945312 C 460.832031 80.75 460.179688 81.402344 459.375 81.402344"/></g><g id="change1_33"><path d="M 104.246094 80.308594 C 103.441406 80.308594 102.789062 79.65625 102.789062 78.851562 L 102.789062 28.742188 C 102.789062 27.9375 103.441406 27.28125 104.246094 27.28125 C 105.054688 27.28125 105.707031 27.9375 105.707031 28.742188 L 105.707031 78.851562 C 105.707031 79.65625 105.054688 80.308594 104.246094 80.308594"/></g><g id="change1_34"><path d="M 47.199219 7.019531 C 45.109375 4.453125 42.992188 3.488281 39.835938 3.335938 C 30.082031 2.867188 26.730469 10.597656 31.445312 14.183594 C 32.664062 15.109375 34.132812 15.054688 35.507812 14.175781 C 36.878906 13.304688 37.34375 12.046875 37.089844 10.480469 C 36.691406 7.984375 35.1875 7.359375 32.65625 7.796875 C 32.355469 7.851562 31.957031 8.046875 31.78125 7.726562 C 31.570312 7.347656 31.902344 7.035156 32.183594 6.804688 C 33.445312 5.761719 34.929688 5.234375 36.527344 4.988281 C 40.136719 4.425781 41.414062 5.734375 42.96875 9.808594 C 44.277344 13.234375 43.886719 18.648438 42.894531 21.59375 C 42.007812 24.230469 39.8125 25.546875 37.058594 25.019531 C 33.480469 24.332031 33.023438 21.523438 32.335938 19.082031 C 32.050781 24.738281 30.042969 27.519531 27.910156 30.527344 C 27.878906 30.574219 28.972656 31.753906 29.097656 31.960938 C 32.308594 37.132812 31.898438 40.777344 32.058594 41.78125 L 32.15625 41.78125 C 32.554688 40.84375 32.976562 39.914062 33.34375 38.964844 C 34.019531 37.214844 35.351562 36.320312 37.117188 35.964844 C 42.777344 34.824219 43.753906 39.824219 43.734375 45.601562 C 43.71875 49.28125 42.289062 55.921875 38.65625 56.089844 C 34.714844 56.273438 31.324219 53.945312 31.816406 53.167969 C 32.097656 52.722656 36.410156 54.679688 37.09375 50.429688 C 37.515625 47.804688 35.179688 45.578125 32.625 46.175781 C 30.605469 46.648438 29 49.296875 29.457031 51.664062 C 30.398438 56.578125 36.316406 58.160156 40.652344 57.746094 C 44.613281 57.367188 47.609375 54.222656 49.074219 50.703125 C 49.953125 48.59375 49.902344 46.660156 49.90625 44.464844 C 49.929688 34.996094 41.503906 29.917969 34.804688 35.175781 C 34.121094 35.710938 34.058594 34.980469 33.070312 31.953125 C 32.539062 30.316406 32.226562 29.964844 34.214844 25.773438 C 34.40625 25.375 34.492188 25.59375 35.828125 26.492188 C 38.640625 28.382812 42.835938 28.292969 45.53125 26.242188 C 50.132812 22.742188 51.011719 15.25 49.117188 10.328125 C 48.796875 9.503906 48.011719 8.019531 47.199219 7.019531"/></g><g id="change1_35"><path d="M 15.507812 3.554688 L 15.507812 57.808594 L 21.832031 57.808594 L 21.832031 3.445312 L 15.507812 3.554688"/></g><g id="change1_36"><path d="M 24.984375 3.457031 L 24.984375 57.808594 L 27.183594 57.808594 L 27.183594 3.445312 L 24.984375 3.457031"/></g></g></svg>